<svg xmlns="http://www.w3.org/2000/svg" width="300" viewBox="0 0 300 150" height="150" version="1.0">
  <defs>
    <clipPath id="a">
      <path d="M 50.292969 28.164062 L 108.792969 28.164062 L 108.792969 115.914062 L 50.292969 115.914062 Z M 50.292969 28.164062"/>
    </clipPath>
  </defs>
  <path fill="#FFF" d="M-30 -15H330V165H-30z"/>
  <path fill="#FFF" d="M-30 -15H330V165H-30z"/>
  <path fill="#2B2B31" d="M-30 -15H330V165H-30z"/>
  <g clip-path="url(#a)">
    <path fill="#FFF" d="M 78.113281 102.980469 C 78.601562 102.980469 78.996094 102.589844 78.996094 102.105469 L 78.996094 70.085938 L 95.417969 108.804688 C 95.558594 109.140625 95.886719 109.34375 96.230469 109.34375 C 96.34375 109.34375 96.460938 109.320312 96.574219 109.273438 C 97.023438 109.085938 97.234375 108.570312 97.042969 108.125 L 79.441406 66.625 L 86.109375 66.625 C 86.597656 66.625 86.992188 66.230469 86.992188 65.75 C 86.992188 65.265625 86.597656 64.875 86.109375 64.875 L 70.117188 64.875 C 69.632812 64.875 69.234375 65.265625 69.234375 65.75 C 69.234375 66.230469 69.632812 66.625 70.117188 66.625 L 76.785156 66.625 L 59.183594 108.125 C 58.992188 108.570312 59.203125 109.085938 59.652344 109.273438 C 59.765625 109.320312 59.882812 109.34375 59.996094 109.34375 C 60.339844 109.34375 60.667969 109.140625 60.808594 108.804688 L 77.230469 70.085938 L 77.230469 102.105469 C 77.230469 102.589844 77.625 102.980469 78.113281 102.980469 Z M 96.675781 40.367188 C 96.675781 38.421875 95.085938 36.847656 93.128906 36.847656 C 91.171875 36.847656 89.582031 38.421875 89.582031 40.367188 C 89.582031 42.308594 91.171875 43.882812 93.128906 43.882812 C 95.085938 43.882812 96.675781 42.308594 96.675781 40.367188 Z M 78.113281 34.738281 C 72.988281 34.738281 68.832031 38.859375 68.832031 43.945312 C 63.664062 43.945312 59.484375 48.132812 59.550781 53.273438 C 59.617188 58.332031 63.871094 62.355469 68.972656 62.355469 L 87.257812 62.355469 C 92.355469 62.355469 96.609375 58.332031 96.675781 53.273438 C 96.742188 48.132812 92.5625 43.945312 87.394531 43.945312 C 87.394531 38.859375 83.238281 34.738281 78.113281 34.738281 Z M 108.464844 44.121094 L 98.402344 51.175781 C 98.515625 51.808594 98.578125 52.457031 98.578125 53.121094 C 98.578125 53.785156 98.515625 54.433594 98.402344 55.0625 L 108.464844 62.121094 C 108.605469 62.222656 108.796875 62.121094 108.796875 61.949219 L 108.796875 44.292969 C 108.796875 44.121094 108.605469 44.019531 108.464844 44.121094 Z M 106.582031 66.503906 L 106.582031 115.078125 C 106.582031 115.523438 106.214844 115.886719 105.765625 115.886719 L 51.109375 115.886719 C 50.660156 115.886719 50.292969 115.523438 50.292969 115.078125 L 50.292969 29.003906 C 50.292969 28.558594 50.660156 28.195312 51.109375 28.195312 L 105.765625 28.195312 C 106.214844 28.195312 106.582031 28.558594 106.582031 29.003906 L 106.582031 38.359375 C 106.582031 38.804688 106.214844 39.167969 105.765625 39.167969 C 105.316406 39.167969 104.949219 38.804688 104.949219 38.359375 L 104.949219 29.8125 L 51.925781 29.8125 L 51.925781 114.269531 L 104.949219 114.269531 L 104.949219 66.503906 C 104.949219 66.058594 105.316406 65.695312 105.765625 65.695312 C 106.214844 65.695312 106.582031 66.058594 106.582031 66.503906"/>
  </g>
  <g fill="#FFF">
    <g>
      <g>
        <path d="M 4.5625 -9.421875 L 4.5625 0 L 1.109375 0 L 1.109375 -15.1875 L 4.5625 -15.1875 L 10.609375 -5.765625 L 10.640625 -5.765625 L 10.640625 -15.1875 L 14.09375 -15.1875 L 14.09375 0 L 10.640625 0 L 4.59375 -9.421875 Z M 4.5625 -9.421875" transform="translate(115.605 61.971)"/>
      </g>
    </g>
  </g>
  <g fill="#FFF">
    <g>
      <g>
        <path d="M 9.796875 -15.1875 L 9.796875 -12.140625 L 4.5625 -12.140625 L 4.5625 -9.125 L 9.578125 -9.125 L 9.578125 -6.09375 L 4.5625 -6.09375 L 4.5625 -3.03125 L 9.796875 -3.03125 L 9.796875 0 L 1.109375 0 L 1.109375 -15.1875 Z M 9.796875 -15.1875" transform="translate(131.157 61.971)"/>
      </g>
    </g>
  </g>
  <g fill="#FFF">
    <g>
      <g>
        <path d="M 0.140625 -12.140625 L 0.140625 -15.1875 L 10.828125 -15.1875 L 10.828125 -12.140625 L 7.21875 -12.140625 L 7.21875 0 L 3.75 0 L 3.75 -12.140625 Z M 0.140625 -12.140625" transform="translate(142.18 61.971)"/>
      </g>
    </g>
  </g>
  <g fill="#FFF">
    <g>
      <g>
        <path d="M 13.65625 0 L 12.9375 -9 L 12.84375 -9 L 9.734375 -0.09375 L 7.671875 -0.09375 L 4.5625 -9 L 4.46875 -9 L 3.75 0 L 0.296875 0 L 1.65625 -15.1875 L 5.34375 -15.1875 L 8.703125 -6.421875 L 12.078125 -15.1875 L 15.75 -15.1875 L 17.125 0 Z M 13.65625 0" transform="translate(115.605 84.756)"/>
      </g>
    </g>
  </g>
  <g fill="#FFF">
    <g>
      <g>
        <path d="M 0.421875 -7.609375 C 0.421875 -9.796875 1.171875 -11.648438 2.671875 -13.171875 C 4.171875 -14.703125 5.972656 -15.46875 8.078125 -15.46875 C 10.203125 -15.46875 12.003906 -14.707031 13.484375 -13.1875 C 14.972656 -11.675781 15.71875 -9.816406 15.71875 -7.609375 C 15.71875 -5.378906 14.988281 -3.503906 13.53125 -1.984375 C 12.070312 -0.472656 10.253906 0.28125 8.078125 0.28125 C 5.859375 0.28125 4.023438 -0.46875 2.578125 -1.96875 C 1.140625 -3.476562 0.421875 -5.359375 0.421875 -7.609375 Z M 4.15625 -7.609375 C 4.15625 -6.804688 4.273438 -6.078125 4.515625 -5.421875 C 4.765625 -4.765625 5.195312 -4.207031 5.8125 -3.75 C 6.425781 -3.300781 7.179688 -3.078125 8.078125 -3.078125 C 9.367188 -3.078125 10.34375 -3.515625 11 -4.390625 C 11.65625 -5.273438 11.984375 -6.347656 11.984375 -7.609375 C 11.984375 -8.835938 11.644531 -9.894531 10.96875 -10.78125 C 10.300781 -11.675781 9.335938 -12.125 8.078125 -12.125 C 6.828125 -12.125 5.859375 -11.675781 5.171875 -10.78125 C 4.492188 -9.894531 4.15625 -8.835938 4.15625 -7.609375 Z M 4.15625 -7.609375" transform="translate(133.365 84.756)"/>
      </g>
    </g>
  </g>
  <g fill="#FFF">
    <g>
      <g>
        <path d="M 5.859375 0 L -0.515625 -15.1875 L 3.390625 -15.1875 L 7.21875 -5.203125 L 11.046875 -15.1875 L 14.953125 -15.1875 L 8.578125 0 Z M 5.859375 0" transform="translate(149.855 84.756)"/>
      </g>
    </g>
  </g>
  <g fill="#FFF">
    <g>
      <g>
        <path d="M 4.5625 -15.1875 L 4.5625 0 L 1.109375 0 L 1.109375 -15.1875 Z M 4.5625 -15.1875" transform="translate(164.634 84.756)"/>
      </g>
    </g>
  </g>
  <g fill="#FFF">
    <g>
      <g>
        <path d="M 9.796875 -15.1875 L 9.796875 -12.140625 L 4.5625 -12.140625 L 4.5625 -9.125 L 9.578125 -9.125 L 9.578125 -6.09375 L 4.5625 -6.09375 L 4.5625 -3.03125 L 9.796875 -3.03125 L 9.796875 0 L 1.109375 0 L 1.109375 -15.1875 Z M 9.796875 -15.1875" transform="translate(170.652 84.756)"/>
      </g>
    </g>
  </g>
  <g fill="#FFF">
    <g>
      <g>
        <path d="M 6.703125 -15.46875 C 7.523438 -15.46875 8.328125 -15.347656 9.109375 -15.109375 C 9.890625 -14.867188 10.472656 -14.628906 10.859375 -14.390625 L 11.40625 -14.03125 L 10.015625 -11.265625 C 9.898438 -11.335938 9.742188 -11.429688 9.546875 -11.546875 C 9.359375 -11.660156 8.992188 -11.816406 8.453125 -12.015625 C 7.910156 -12.210938 7.40625 -12.3125 6.9375 -12.3125 C 6.363281 -12.3125 5.921875 -12.1875 5.609375 -11.9375 C 5.296875 -11.695312 5.140625 -11.367188 5.140625 -10.953125 C 5.140625 -10.742188 5.210938 -10.550781 5.359375 -10.375 C 5.503906 -10.195312 5.753906 -10.003906 6.109375 -9.796875 C 6.460938 -9.597656 6.773438 -9.4375 7.046875 -9.3125 C 7.316406 -9.1875 7.734375 -9.003906 8.296875 -8.765625 C 9.285156 -8.347656 10.125 -7.78125 10.8125 -7.0625 C 11.507812 -6.34375 11.859375 -5.53125 11.859375 -4.625 C 11.859375 -3.75 11.703125 -2.984375 11.390625 -2.328125 C 11.078125 -1.679688 10.644531 -1.171875 10.09375 -0.796875 C 9.550781 -0.429688 8.945312 -0.160156 8.28125 0.015625 C 7.613281 0.191406 6.894531 0.28125 6.125 0.28125 C 5.46875 0.28125 4.816406 0.210938 4.171875 0.078125 C 3.535156 -0.0546875 3.003906 -0.222656 2.578125 -0.421875 C 2.148438 -0.628906 1.765625 -0.832031 1.421875 -1.03125 C 1.078125 -1.226562 0.820312 -1.394531 0.65625 -1.53125 L 0.421875 -1.734375 L 2.15625 -4.640625 C 2.300781 -4.515625 2.5 -4.359375 2.75 -4.171875 C 3.007812 -3.984375 3.46875 -3.726562 4.125 -3.40625 C 4.78125 -3.082031 5.363281 -2.921875 5.875 -2.921875 C 7.332031 -2.921875 8.0625 -3.421875 8.0625 -4.421875 C 8.0625 -4.628906 8.007812 -4.820312 7.90625 -5 C 7.800781 -5.175781 7.613281 -5.351562 7.34375 -5.53125 C 7.082031 -5.707031 6.847656 -5.847656 6.640625 -5.953125 C 6.441406 -6.054688 6.113281 -6.210938 5.65625 -6.421875 C 5.195312 -6.640625 4.859375 -6.804688 4.640625 -6.921875 C 3.722656 -7.378906 3.007812 -7.945312 2.5 -8.625 C 2 -9.300781 1.75 -10.035156 1.75 -10.828125 C 1.75 -12.179688 2.25 -13.289062 3.25 -14.15625 C 4.257812 -15.03125 5.410156 -15.46875 6.703125 -15.46875 Z M 6.703125 -15.46875" transform="translate(181.676 84.756)"/>
      </g>
    </g>
  </g>
  <g fill="#FFF">
    <g>
      <g>
        <path d="M 3.203125 -3.9375 C 3.796875 -3.9375 4.296875 -3.726562 4.703125 -3.3125 C 5.109375 -2.90625 5.3125 -2.410156 5.3125 -1.828125 C 5.3125 -1.242188 5.109375 -0.742188 4.703125 -0.328125 C 4.296875 0.078125 3.796875 0.28125 3.203125 0.28125 C 2.628906 0.28125 2.132812 0.078125 1.71875 -0.328125 C 1.3125 -0.742188 1.109375 -1.242188 1.109375 -1.828125 C 1.109375 -2.410156 1.3125 -2.90625 1.71875 -3.3125 C 2.132812 -3.726562 2.628906 -3.9375 3.203125 -3.9375 Z M 3.203125 -3.9375" transform="translate(194.393 84.756)"/>
      </g>
    </g>
  </g>
  <g fill="#FFF">
    <g>
      <g>
        <path d="M 0.40625 0 C 0.40625 0 0.40625 -1.390625 0.40625 -4.171875 C 0.40625 -4.171875 1.113281 -4.171875 2.53125 -4.171875 C 2.53125 -4.171875 2.53125 -3.925781 2.53125 -3.4375 C 2.53125 -3.4375 2.078125 -3.4375 1.171875 -3.4375 C 1.171875 -3.4375 1.171875 -3.109375 1.171875 -2.453125 C 1.171875 -2.453125 1.601562 -2.453125 2.46875 -2.453125 C 2.46875 -2.453125 2.46875 -2.207031 2.46875 -1.71875 C 2.46875 -1.71875 2.035156 -1.71875 1.171875 -1.71875 C 1.171875 -1.71875 1.171875 -1.144531 1.171875 0 C 1.171875 0 0.914062 0 0.40625 0 Z M 0.40625 0" transform="translate(117.462 95.184)"/>
      </g>
    </g>
  </g>
  <g fill="#FFF">
    <g>
      <g>
        <path d="M 0.3125 0 C 0.3125 0 0.3125 -1.046875 0.3125 -3.140625 C 0.3125 -3.140625 0.5625 -3.140625 1.0625 -3.140625 C 1.0625 -3.140625 1.0625 -2.09375 1.0625 0 C 1.0625 0 0.8125 0 0.3125 0 Z M 0.3125 -3.46875 C 0.3125 -3.46875 0.3125 -3.703125 0.3125 -4.171875 C 0.3125 -4.171875 0.5625 -4.171875 1.0625 -4.171875 C 1.0625 -4.171875 1.0625 -3.9375 1.0625 -3.46875 C 1.0625 -3.46875 0.8125 -3.46875 0.3125 -3.46875 Z M 0.3125 -3.46875" transform="translate(120.767 95.184)"/>
      </g>
    </g>
  </g>
  <g fill="#FFF">
    <g>
      <g>
        <path d="M 0.3125 0 C 0.3125 0 0.3125 -1.390625 0.3125 -4.171875 C 0.3125 -4.171875 0.5625 -4.171875 1.0625 -4.171875 C 1.0625 -4.171875 1.0625 -2.78125 1.0625 0 C 1.0625 0 0.8125 0 0.3125 0 Z M 0.3125 0" transform="translate(122.637 95.184)"/>
      </g>
    </g>
  </g>
  <g fill="#FFF">
    <g>
      <g>
        <path d="M 0.3125 0 C 0.3125 0 0.3125 -1.046875 0.3125 -3.140625 C 0.3125 -3.140625 0.539062 -3.140625 1 -3.140625 C 1 -3.140625 1 -3.039062 1 -2.84375 C 1.101562 -2.96875 1.21875 -3.054688 1.34375 -3.109375 C 1.46875 -3.171875 1.625 -3.203125 1.8125 -3.203125 C 2.03125 -3.203125 2.210938 -3.164062 2.359375 -3.09375 C 2.503906 -3.019531 2.628906 -2.894531 2.734375 -2.71875 C 2.859375 -2.882812 3 -3.003906 3.15625 -3.078125 C 3.320312 -3.160156 3.515625 -3.203125 3.734375 -3.203125 C 3.984375 -3.203125 4.203125 -3.15625 4.390625 -3.0625 C 4.578125 -2.976562 4.71875 -2.851562 4.8125 -2.6875 C 4.9375 -2.46875 5 -2.175781 5 -1.8125 L 5 0 L 4.25 0 L 4.25 -1.71875 C 4.25 -1.875 4.238281 -2 4.21875 -2.09375 C 4.195312 -2.195312 4.15625 -2.28125 4.09375 -2.34375 C 4 -2.457031 3.859375 -2.515625 3.671875 -2.515625 C 3.410156 -2.515625 3.226562 -2.410156 3.125 -2.203125 C 3.0625 -2.066406 3.03125 -1.847656 3.03125 -1.546875 L 3.03125 0 L 2.28125 0 C 2.28125 0 2.28125 -0.570312 2.28125 -1.71875 C 2.28125 -2.007812 2.234375 -2.210938 2.140625 -2.328125 C 2.035156 -2.453125 1.878906 -2.515625 1.671875 -2.515625 C 1.398438 -2.515625 1.21875 -2.398438 1.125 -2.171875 C 1.082031 -2.046875 1.0625 -1.835938 1.0625 -1.546875 C 1.0625 -1.546875 1.0625 -1.03125 1.0625 0 C 1.0625 0 0.8125 0 0.3125 0 Z M 0.3125 0" transform="translate(124.507 95.184)"/>
      </g>
    </g>
  </g>
  <g fill="#FFF">
    <g>
      <g>
        <path d="M 0.40625 0 C 0.40625 0 0.40625 -1.390625 0.40625 -4.171875 C 0.40625 -4.171875 0.722656 -4.171875 1.359375 -4.171875 C 2.046875 -4.171875 2.554688 -4.066406 2.890625 -3.859375 C 3.160156 -3.671875 3.367188 -3.425781 3.515625 -3.125 C 3.671875 -2.820312 3.75 -2.472656 3.75 -2.078125 C 3.75 -1.648438 3.65625 -1.269531 3.46875 -0.9375 C 3.28125 -0.613281 3.019531 -0.375 2.6875 -0.21875 C 2.519531 -0.132812 2.332031 -0.078125 2.125 -0.046875 C 1.925781 -0.015625 1.675781 0 1.375 0 Z M 1.171875 -0.734375 L 1.34375 -0.734375 C 1.789062 -0.734375 2.128906 -0.796875 2.359375 -0.921875 C 2.546875 -1.023438 2.691406 -1.179688 2.796875 -1.390625 C 2.910156 -1.597656 2.96875 -1.828125 2.96875 -2.078125 C 2.96875 -2.359375 2.90625 -2.601562 2.78125 -2.8125 C 2.664062 -3.019531 2.503906 -3.175781 2.296875 -3.28125 C 2.179688 -3.34375 2.050781 -3.382812 1.90625 -3.40625 C 1.757812 -3.425781 1.566406 -3.4375 1.328125 -3.4375 L 1.171875 -3.4375 Z M 1.171875 -0.734375" transform="translate(132.401 95.184)"/>
      </g>
    </g>
  </g>
  <g fill="#FFF">
    <g>
      <g>
        <path d="M 0.3125 0 C 0.3125 0 0.3125 -1.046875 0.3125 -3.140625 C 0.3125 -3.140625 0.5625 -3.140625 1.0625 -3.140625 C 1.0625 -3.140625 1.0625 -2.09375 1.0625 0 C 1.0625 0 0.8125 0 0.3125 0 Z M 0.3125 -3.46875 C 0.3125 -3.46875 0.3125 -3.703125 0.3125 -4.171875 C 0.3125 -4.171875 0.5625 -4.171875 1.0625 -4.171875 C 1.0625 -4.171875 1.0625 -3.9375 1.0625 -3.46875 C 1.0625 -3.46875 0.8125 -3.46875 0.3125 -3.46875 Z M 0.3125 -3.46875" transform="translate(136.86 95.184)"/>
      </g>
    </g>
  </g>
  <g fill="#FFF">
    <g>
      <g>
        <path d="M 0.078125 -1 C 0.078125 -1 0.332031 -1 0.84375 -1 C 0.875 -0.863281 0.921875 -0.765625 0.984375 -0.703125 C 1.054688 -0.640625 1.148438 -0.609375 1.265625 -0.609375 C 1.359375 -0.609375 1.4375 -0.640625 1.5 -0.703125 C 1.570312 -0.765625 1.609375 -0.835938 1.609375 -0.921875 C 1.609375 -1.023438 1.554688 -1.109375 1.453125 -1.171875 C 1.410156 -1.191406 1.367188 -1.207031 1.328125 -1.21875 C 1.296875 -1.238281 1.207031 -1.273438 1.0625 -1.328125 C 0.75 -1.429688 0.523438 -1.550781 0.390625 -1.6875 C 0.265625 -1.832031 0.203125 -2.019531 0.203125 -2.25 C 0.203125 -2.519531 0.300781 -2.742188 0.5 -2.921875 C 0.695312 -3.109375 0.941406 -3.203125 1.234375 -3.203125 C 1.398438 -3.203125 1.554688 -3.171875 1.703125 -3.109375 C 1.847656 -3.046875 1.96875 -2.957031 2.0625 -2.84375 C 2.132812 -2.757812 2.1875 -2.671875 2.21875 -2.578125 C 2.25 -2.492188 2.265625 -2.390625 2.265625 -2.265625 L 1.53125 -2.265625 C 1.5 -2.429688 1.398438 -2.515625 1.234375 -2.515625 C 1.160156 -2.515625 1.09375 -2.488281 1.03125 -2.4375 C 0.976562 -2.382812 0.953125 -2.320312 0.953125 -2.25 C 0.953125 -2.15625 1 -2.085938 1.09375 -2.046875 C 1.144531 -2.023438 1.273438 -1.976562 1.484375 -1.90625 C 1.796875 -1.8125 2.019531 -1.691406 2.15625 -1.546875 C 2.289062 -1.410156 2.359375 -1.226562 2.359375 -1 C 2.359375 -0.695312 2.25 -0.441406 2.03125 -0.234375 C 1.8125 -0.0234375 1.546875 0.078125 1.234375 0.078125 C 1.035156 0.078125 0.851562 0.0351562 0.6875 -0.046875 C 0.519531 -0.128906 0.382812 -0.238281 0.28125 -0.375 C 0.21875 -0.457031 0.171875 -0.546875 0.140625 -0.640625 C 0.117188 -0.734375 0.0976562 -0.851562 0.078125 -1 Z M 0.078125 -1" transform="translate(138.73 95.184)"/>
      </g>
    </g>
  </g>
  <g fill="#FFF">
    <g>
      <g>
        <path d="M 0.4375 0 C 0.4375 0 0.4375 -0.816406 0.4375 -2.453125 C 0.4375 -2.453125 0.316406 -2.453125 0.078125 -2.453125 C 0.078125 -2.453125 0.078125 -2.679688 0.078125 -3.140625 C 0.078125 -3.140625 0.195312 -3.140625 0.4375 -3.140625 C 0.4375 -3.140625 0.4375 -3.484375 0.4375 -4.171875 C 0.4375 -4.171875 0.6875 -4.171875 1.1875 -4.171875 C 1.1875 -4.171875 1.1875 -3.828125 1.1875 -3.140625 C 1.1875 -3.140625 1.335938 -3.140625 1.640625 -3.140625 C 1.640625 -3.140625 1.640625 -2.910156 1.640625 -2.453125 C 1.640625 -2.453125 1.488281 -2.453125 1.1875 -2.453125 C 1.1875 -2.453125 1.1875 -1.632812 1.1875 0 C 1.1875 0 0.9375 0 0.4375 0 Z M 0.4375 0" transform="translate(141.715 95.184)"/>
      </g>
    </g>
  </g>
  <g fill="#FFF">
    <g>
      <g>
        <path d="M 0.3125 0 C 0.3125 0 0.3125 -1.046875 0.3125 -3.140625 C 0.3125 -3.140625 0.539062 -3.140625 1 -3.140625 C 1 -3.140625 1 -3.035156 1 -2.828125 C 1.09375 -2.972656 1.1875 -3.070312 1.28125 -3.125 C 1.382812 -3.175781 1.515625 -3.203125 1.671875 -3.203125 L 1.734375 -3.203125 C 1.734375 -3.203125 1.734375 -2.960938 1.734375 -2.484375 C 1.285156 -2.472656 1.0625 -2.226562 1.0625 -1.75 C 1.0625 -1.75 1.0625 -1.164062 1.0625 0 C 1.0625 0 0.8125 0 0.3125 0 Z M 0.3125 0" transform="translate(143.936 95.184)"/>
      </g>
    </g>
  </g>
  <g fill="#FFF">
    <g>
      <g>
        <path d="M 0.3125 0 C 0.3125 0 0.3125 -1.046875 0.3125 -3.140625 C 0.3125 -3.140625 0.5625 -3.140625 1.0625 -3.140625 C 1.0625 -3.140625 1.0625 -2.09375 1.0625 0 C 1.0625 0 0.8125 0 0.3125 0 Z M 0.3125 -3.46875 C 0.3125 -3.46875 0.3125 -3.703125 0.3125 -4.171875 C 0.3125 -4.171875 0.5625 -4.171875 1.0625 -4.171875 C 1.0625 -4.171875 1.0625 -3.9375 1.0625 -3.46875 C 1.0625 -3.46875 0.8125 -3.46875 0.3125 -3.46875 Z M 0.3125 -3.46875" transform="translate(146.308 95.184)"/>
      </g>
    </g>
  </g>
  <g fill="#FFF">
    <g>
      <g>
        <path d="M 0.3125 0 C 0.3125 0 0.3125 -1.390625 0.3125 -4.171875 C 0.3125 -4.171875 0.5625 -4.171875 1.0625 -4.171875 C 1.0625 -4.171875 1.0625 -3.726562 1.0625 -2.84375 C 1.207031 -2.988281 1.351562 -3.09375 1.5 -3.15625 C 1.644531 -3.21875 1.820312 -3.25 2.03125 -3.25 C 2.332031 -3.25 2.601562 -3.175781 2.84375 -3.03125 C 3.082031 -2.882812 3.269531 -2.6875 3.40625 -2.4375 C 3.539062 -2.1875 3.609375 -1.90625 3.609375 -1.59375 C 3.609375 -1.164062 3.488281 -0.789062 3.25 -0.46875 C 2.957031 -0.101562 2.566406 0.078125 2.078125 0.078125 C 1.847656 0.078125 1.648438 0.0390625 1.484375 -0.03125 C 1.316406 -0.101562 1.15625 -0.226562 1 -0.40625 L 1 0 Z M 1.90625 -2.5625 C 1.644531 -2.5625 1.429688 -2.46875 1.265625 -2.28125 C 1.097656 -2.09375 1.015625 -1.859375 1.015625 -1.578125 C 1.015625 -1.296875 1.097656 -1.0625 1.265625 -0.875 C 1.441406 -0.695312 1.664062 -0.609375 1.9375 -0.609375 C 2.207031 -0.609375 2.425781 -0.695312 2.59375 -0.875 C 2.757812 -1.0625 2.84375 -1.296875 2.84375 -1.578125 C 2.84375 -1.867188 2.753906 -2.101562 2.578125 -2.28125 C 2.410156 -2.46875 2.1875 -2.5625 1.90625 -2.5625 Z M 1.90625 -2.5625" transform="translate(148.178 95.184)"/>
      </g>
    </g>
  </g>
  <g fill="#FFF">
    <g>
      <g>
        <path d="M 3.078125 -3.140625 C 3.078125 -3.140625 3.078125 -2.09375 3.078125 0 C 3.078125 0 2.847656 0 2.390625 0 C 2.390625 0 2.390625 -0.0976562 2.390625 -0.296875 C 2.242188 -0.160156 2.101562 -0.0625 1.96875 0 C 1.832031 0.0507812 1.671875 0.078125 1.484375 0.078125 C 1.273438 0.078125 1.085938 0.0351562 0.921875 -0.046875 C 0.753906 -0.140625 0.617188 -0.265625 0.515625 -0.421875 C 0.429688 -0.546875 0.375 -0.679688 0.34375 -0.828125 C 0.3125 -0.984375 0.296875 -1.191406 0.296875 -1.453125 L 0.296875 -3.140625 L 1.046875 -3.140625 L 1.046875 -1.609375 C 1.046875 -1.390625 1.054688 -1.21875 1.078125 -1.09375 C 1.109375 -0.96875 1.148438 -0.867188 1.203125 -0.796875 C 1.304688 -0.671875 1.453125 -0.609375 1.640625 -0.609375 C 1.773438 -0.609375 1.890625 -0.632812 1.984375 -0.6875 C 2.085938 -0.738281 2.164062 -0.816406 2.21875 -0.921875 C 2.257812 -0.984375 2.285156 -1.070312 2.296875 -1.1875 C 2.316406 -1.300781 2.328125 -1.457031 2.328125 -1.65625 L 2.328125 -3.140625 Z M 3.078125 -3.140625" transform="translate(152.449 95.184)"/>
      </g>
    </g>
  </g>
  <g fill="#FFF">
    <g>
      <g>
        <path d="M 0.4375 0 C 0.4375 0 0.4375 -0.816406 0.4375 -2.453125 C 0.4375 -2.453125 0.316406 -2.453125 0.078125 -2.453125 C 0.078125 -2.453125 0.078125 -2.679688 0.078125 -3.140625 C 0.078125 -3.140625 0.195312 -3.140625 0.4375 -3.140625 C 0.4375 -3.140625 0.4375 -3.484375 0.4375 -4.171875 C 0.4375 -4.171875 0.6875 -4.171875 1.1875 -4.171875 C 1.1875 -4.171875 1.1875 -3.828125 1.1875 -3.140625 C 1.1875 -3.140625 1.335938 -3.140625 1.640625 -3.140625 C 1.640625 -3.140625 1.640625 -2.910156 1.640625 -2.453125 C 1.640625 -2.453125 1.488281 -2.453125 1.1875 -2.453125 C 1.1875 -2.453125 1.1875 -1.632812 1.1875 0 C 1.1875 0 0.9375 0 0.4375 0 Z M 0.4375 0" transform="translate(156.342 95.184)"/>
      </g>
    </g>
  </g>
  <g fill="#FFF">
    <g>
      <g>
        <path d="M 1.84375 -3.203125 C 2.132812 -3.203125 2.40625 -3.128906 2.65625 -2.984375 C 2.914062 -2.835938 3.117188 -2.632812 3.265625 -2.375 C 3.410156 -2.125 3.484375 -1.851562 3.484375 -1.5625 C 3.484375 -1.269531 3.410156 -0.992188 3.265625 -0.734375 C 3.117188 -0.484375 2.914062 -0.285156 2.65625 -0.140625 C 2.40625 0.00390625 2.128906 0.078125 1.828125 0.078125 C 1.523438 0.078125 1.242188 0.00390625 0.984375 -0.140625 C 0.734375 -0.285156 0.53125 -0.484375 0.375 -0.734375 C 0.226562 -0.992188 0.15625 -1.269531 0.15625 -1.5625 C 0.15625 -1.78125 0.195312 -1.988281 0.28125 -2.1875 C 0.375 -2.394531 0.492188 -2.570312 0.640625 -2.71875 C 0.796875 -2.875 0.976562 -2.992188 1.1875 -3.078125 C 1.394531 -3.160156 1.613281 -3.203125 1.84375 -3.203125 Z M 1.8125 -2.515625 C 1.5625 -2.515625 1.347656 -2.421875 1.171875 -2.234375 C 1.003906 -2.046875 0.921875 -1.820312 0.921875 -1.5625 C 0.921875 -1.300781 1.007812 -1.078125 1.1875 -0.890625 C 1.363281 -0.703125 1.570312 -0.609375 1.8125 -0.609375 C 2.070312 -0.609375 2.289062 -0.703125 2.46875 -0.890625 C 2.644531 -1.078125 2.734375 -1.300781 2.734375 -1.5625 C 2.734375 -1.832031 2.644531 -2.054688 2.46875 -2.234375 C 2.289062 -2.421875 2.070312 -2.515625 1.8125 -2.515625 Z M 1.8125 -2.515625" transform="translate(158.563 95.184)"/>
      </g>
    </g>
  </g>
  <g fill="#FFF">
    <g>
      <g>
        <path d="M 0.3125 0 C 0.3125 0 0.3125 -1.046875 0.3125 -3.140625 C 0.3125 -3.140625 0.539062 -3.140625 1 -3.140625 C 1 -3.140625 1 -3.035156 1 -2.828125 C 1.09375 -2.972656 1.1875 -3.070312 1.28125 -3.125 C 1.382812 -3.175781 1.515625 -3.203125 1.671875 -3.203125 L 1.734375 -3.203125 C 1.734375 -3.203125 1.734375 -2.960938 1.734375 -2.484375 C 1.285156 -2.472656 1.0625 -2.226562 1.0625 -1.75 C 1.0625 -1.75 1.0625 -1.164062 1.0625 0 C 1.0625 0 0.8125 0 0.3125 0 Z M 0.3125 0" transform="translate(162.715 95.184)"/>
      </g>
    </g>
  </g>
  <g fill="#FFF">
    <g>
      <g>
        <path d="M 0.078125 -1 C 0.078125 -1 0.332031 -1 0.84375 -1 C 0.875 -0.863281 0.921875 -0.765625 0.984375 -0.703125 C 1.054688 -0.640625 1.148438 -0.609375 1.265625 -0.609375 C 1.359375 -0.609375 1.4375 -0.640625 1.5 -0.703125 C 1.570312 -0.765625 1.609375 -0.835938 1.609375 -0.921875 C 1.609375 -1.023438 1.554688 -1.109375 1.453125 -1.171875 C 1.410156 -1.191406 1.367188 -1.207031 1.328125 -1.21875 C 1.296875 -1.238281 1.207031 -1.273438 1.0625 -1.328125 C 0.75 -1.429688 0.523438 -1.550781 0.390625 -1.6875 C 0.265625 -1.832031 0.203125 -2.019531 0.203125 -2.25 C 0.203125 -2.519531 0.300781 -2.742188 0.5 -2.921875 C 0.695312 -3.109375 0.941406 -3.203125 1.234375 -3.203125 C 1.398438 -3.203125 1.554688 -3.171875 1.703125 -3.109375 C 1.847656 -3.046875 1.96875 -2.957031 2.0625 -2.84375 C 2.132812 -2.757812 2.1875 -2.671875 2.21875 -2.578125 C 2.25 -2.492188 2.265625 -2.390625 2.265625 -2.265625 L 1.53125 -2.265625 C 1.5 -2.429688 1.398438 -2.515625 1.234375 -2.515625 C 1.160156 -2.515625 1.09375 -2.488281 1.03125 -2.4375 C 0.976562 -2.382812 0.953125 -2.320312 0.953125 -2.25 C 0.953125 -2.15625 1 -2.085938 1.09375 -2.046875 C 1.144531 -2.023438 1.273438 -1.976562 1.484375 -1.90625 C 1.796875 -1.8125 2.019531 -1.691406 2.15625 -1.546875 C 2.289062 -1.410156 2.359375 -1.226562 2.359375 -1 C 2.359375 -0.695312 2.25 -0.441406 2.03125 -0.234375 C 1.8125 -0.0234375 1.546875 0.078125 1.234375 0.078125 C 1.035156 0.078125 0.851562 0.0351562 0.6875 -0.046875 C 0.519531 -0.128906 0.382812 -0.238281 0.28125 -0.375 C 0.21875 -0.457031 0.171875 -0.546875 0.140625 -0.640625 C 0.117188 -0.734375 0.0976562 -0.851562 0.078125 -1 Z M 0.078125 -1" transform="translate(165.088 95.184)"/>
      </g>
    </g>
  </g>
</svg>